<?xml version="1.0" encoding="utf-8"?>
<!-- Generator: Adobe Illustrator 25.0.0, SVG Export Plug-In . SVG Version: 6.00 Build 0)  -->
<svg version="1.1" id="AW" xmlns="http://www.w3.org/2000/svg" xmlns:xlink="http://www.w3.org/1999/xlink" x="0px" y="0px"
	 viewBox="0 0 226.8 226.8" style="enable-background:new 0 0 226.8 226.8;" xml:space="preserve">
<style type="text/css">
	.st0{fill:#F44E27;}
</style>
<path class="st0" d="M170.1,56.7c-32.1,1.5-61.6,18.1-79.5,44.8c-12-2.1-24.3,0.9-33.9,8.3v7.2c29.3,0,53,23.7,53.1,52.9
	c0,0,0,0.1,0,0.1h7.2c7.4-9.6,10.5-21.9,8.3-33.9C152,118.3,168.6,88.8,170.1,56.7z M119.5,94.6c0-7,5.7-12.7,12.7-12.7
	s12.7,5.7,12.7,12.7c0,7-5.7,12.7-12.7,12.7C125.2,107.3,119.5,101.6,119.5,94.6C119.5,94.6,119.5,94.6,119.5,94.6z"/>
<path class="st0" d="M74.6,142.7c-7.4-2.1-15.2,2.1-17.3,9.6c-0.4,1.2-0.5,2.5-0.5,3.8l0,0v14h14c1.2,0,2.3-0.1,3.4-0.4
	c7.5-1.9,12-9.5,10.1-17C83,147.8,79.3,144.1,74.6,142.7L74.6,142.7z"/>
</svg>
